# xmcd
#
# Track frame offsets:
#	150
#	12407
#	27360
#	43050
#	55450
#	73615
#	88122
#	103367
#	119200
#	143167
#	158395
#	171067
#	184645
#
# Disc length: 2686 seconds
#
# Revision: 1
# Processed by: cddbd v1.4PL0 Copyright (c) Steve Scherf et al.
# Submitted via: audiograbber 1.81.03
#
DISCID=b70a7c0d
DTITLE=Slow Horses  - Cherokee Sessions
DYEAR=2001
DGENRE=Country
TTITLE0=Good Bye My Little Cherokkee
TTITLE1=I Got Better Things To Do
TTITLE2=What About Now
TTITLE3=Right Now
TTITLE4=Chattahoochee
TTITLE5=I´ll Think Of A Reason Later
TTITLE6=Stand By Your Man
TTITLE7=Write This Down
TTITLE8=Bartender´s Blues
TTITLE9=Ring Of Fire
TTITLE10=Lodi
TTITLE11=Cupid
TTITLE12=Good By My Little Cherokee
EXTD=
EXTT0=
EXTT1=
EXTT2=
EXTT3=
EXTT4=
EXTT5=
EXTT6=
EXTT7=
EXTT8=
EXTT9=
EXTT10=
EXTT11=
EXTT12=
PLAYORDER=
